{"title":"Dracula III Legacy 2005 DvDRip Hindi  GOPI SAHI","uid":10220799,"size":291282767,"categoryP":"video","categoryS":"movies","magnet":"?xt=urn:btih:b0f4cf3ff8046bd9d61c36f5656ba73803125206&amp;dn=Dracula+III+Legacy+2005+DvDRip+Hindi++GOPI+SAHI&amp;tr=udp%3A%2F%2Ftracker.openbittorrent.com%3A80&amp;tr=udp%3A%2F%2Fopen.demonii.com%3A1337&amp;tr=udp%3A%2F%2Ftracker.coppersurfer.tk%3A6969&amp;tr=udp%3A%2F%2Fexodus.desync.com%3A6969","seeders":0,"leechers":2,"uploader":"jatt13","files":1,"time":1401040670,"description":"Video\nID                             : 1\nFormat                         : AVC\nFormat/Info                    : Advanced Video Codec\nFormat profile                 : &lt;a class=&quot;__cf_email__&quot; href=&quot;/cdn-cgi/l/email-protection&quot; data-cfemail=&quot;fdb09c9493bdb1c9d3cd&quot;&gt;[email&amp;#160;protected]&lt;/a&gt;&lt;script data-cfhash='f9e31' type=&quot;text/javascript&quot;&gt;\n/* &lt;![CDATA[ */!function(){try{var t=&quot;currentScript&quot;in document?document.currentScript:function(){for(var t=document.getElementsByTagName(&quot;script&quot;),e=t.length;e--;)if(t[e].getAttribute(&quot;data-cfhash&quot;))return t[e]}();if(t&amp;&amp;t.previousSibling){var e,r,n,i,c=t.previousSibling,a=c.getAttribute(&quot;data-cfemail&quot;);if(a){for(e=&quot;&quot;,r=parseInt(a.substr(0,2),16),n=2;a.length-n;n+=2)i=parseInt(a.substr(n,2),16)^r,e+=String.fromCharCode(i);e=document.createTextNode(e),c.parentNode.replaceChild(e,c)}t.parentNode.removeChild(t);}}catch(u){}}()/* ]]&gt; */&lt;/script&gt;\nFormat settings, CABAC         : Yes\nFormat settings, ReFrames      : 4 frames\nCodec ID                       : V_MPEG4/ISO/AVC\nDuration                       : 1h 26mn\nBit rate                       : 400 Kbps\nWidth                          : 672 pixels\nHeight                         : 288 pixels\nDisplay aspect ratio           : 2.35:1\nFrame rate mode                : Constant\nFrame rate                     : 25.000 fps\nColor space                    : YUV\nChroma subsampling             : 4:2:0\nBit depth                      : 8 bits\nScan type                      : Progressive\nBits/(Pixel*Frame)             : 0.083\nStream size                    : 242 MiB (87%)\nTitle                          : GOPI SAHI\nWriting library                : x264 core 130 r2273 b3065e6\nLanguage                       : English\nDefault                        : Yes\nForced                         : No\nColor primaries                : BT.601 PAL\nTransfer characteristics       : BT.709\nMatrix coefficients            : BT.601\n\nAudio\nID                             : 2\nFormat                         : MPEG Audio\nFormat version                 : Version 1\nFormat profile                 : Layer 3\nMode                           : Joint stereo\nMode extension                 : MS Stereo\nCodec ID                       : A_MPEG/L3\nCodec ID/Hint                  : MP3\nDuration                       : 1h 26mn\nBit rate mode                  : Constant\nBit rate                       : 48.0 Kbps\nChannel count                  : 2 channels\nSampling rate                  : 44.1 KHz\nCompression mode               : Lossy\nStream size                    : 29.8 MiB (11%)\nTitle                          : GOPI SAHI\nWriting library                : LAME3.98.2\nLanguage                       : Hindi\nDefault                        : Yes\nForced                         : No\n[IMG]http://i.imgur.com/u1miU6Z.jpg[/IMG]\n[IMG]http://i.imgur.com/RwBJysN.jpg[/IMG]\n[IMG]http://i.imgur.com/wlej2A0.jpg[/IMG]\n[IMG]http://i.imgur.com/WZ45QiT.jpg[/IMG]","torrent":{"xt":"urn:btih:b0f4cf3ff8046bd9d61c36f5656ba73803125206","amp;dn":"Dracula+III+Legacy+2005+DvDRip+Hindi++GOPI+SAHI","amp;tr":["udp%3A%2F%2Ftracker.openbittorrent.com%3A80","udp%3A%2F%2Fopen.demonii.com%3A1337","udp%3A%2F%2Ftracker.coppersurfer.tk%3A6969","udp%3A%2F%2Fexodus.desync.com%3A6969"],"infoHash":"b0f4cf3ff8046bd9d61c36f5656ba73803125206","infoHashBuffer":{"type":"Buffer","data":[176,244,207,63,248,4,107,217,214,28,54,245,101,107,167,56,3,18,82,6]},"announce":[],"urlList":[]}}